# xmcd
#
# Track frame offsets:
#	150
#	14607
#	30528
#	42203
#	58980
#	78416
#	96073
#	118585
#	139974
#	157539
#	172972
#	196014
#	211418
#	229735
#	243744
#	263728
#	280090
#	292218
#	310227
#	326236
#
# Disc length: 4593 seconds
#
# Revision: 0
# Processed by: cddbd v1.5.2PL0 Copyright (c) Steve Scherf et al.
# Submitted via: EZCDAudioConverter 3.1.0.1
#
DISCID=1e11ef14
DTITLE=Viouris  - Music from Paradise event.
DYEAR=1900
DGENRE=
TTITLE0=Anuhea - Looking For Love
TTITLE1=Betty Who - Missing You
TTITLE2=Burnside - Goin' Down South
TTITLE3=Clare - Kiss and Tell 
TTITLE4=Ed Sheeran - Photograph
TTITLE5=Ed Sheeran - Sing ( Official)
TTITLE6=Eric Benet FT. Lil Wanye - Redbone Girl
TTITLE7=Garry Scyman - Trip The Light ( lyrics)
TTITLE8=Ginuwine - Get Involved
TTITLE9=Grieves - On the Rocks W Lyrics
TTITLE10=John Legend - All of Me
TTITLE11=John Mayer Trio - Come When I Call ( Studio)
TTITLE12=Marian Hill - One Time
TTITLE13=Mark Ballas - Get My Name ( Lyrics)
TTITLE14=Pitbull - Give Me Everything ft. Ne-Yo, Afrojack, Nayer
TTITLE15=Rac - Cheap Sunglasses ft. Matthew Koma
TTITLE16=The Lumineers - Ho Hey ( offical Vedio)
TTITLE17=The weekend  - Dark time ft.Ed Sheeran
TTITLE18=Yuna  - Light and Camera
TTITLE19=Yuna - Lullabies
EXTD=
EXTT0=
EXTT1=
EXTT2=
EXTT3=
EXTT4=
EXTT5=
EXTT6=
EXTT7=
EXTT8=
EXTT9=
EXTT10=
EXTT11=
EXTT12=
EXTT13=
EXTT14=
EXTT15=
EXTT16=
EXTT17=
EXTT18=
EXTT19=
PLAYORDER=
